<?xml version="1.0" encoding="utf-8"?>
<!-- Generator: Adobe Illustrator 21.1.0, SVG Export Plug-In . SVG Version: 6.00 Build 0)  -->
<svg version="1.1" id="Logo" xmlns="http://www.w3.org/2000/svg" xmlns:xlink="http://www.w3.org/1999/xlink" x="0px" y="0px"
	 viewBox="0 0 100 100" style="enable-background:new 0 0 100 100;" xml:space="preserve">
<style type="text/css">
	.st0{fill:#009245;}
	.st1{font-family:'Montserrat-SemiBold';}
	.st2{font-size:20.4837px;}
	.st3{fill:none;stroke:#009245;stroke-width:2;stroke-miterlimit:10;}
	.st4{fill:none;stroke:#009245;stroke-width:2;stroke-linecap:round;stroke-miterlimit:10;}
</style>
<text id="Text" transform="matrix(1.1435 0 0 1 14.001 31.4111)"><tspan x="0" y="0" class="st0 st1 st2">The</tspan><tspan x="0" y="24.6" class="st0 st1 st2">Movie</tspan><tspan x="0" y="49.2" class="st0 st1 st2">DB</tspan></text>
<path id="Border2" class="st3" d="M17,93L17,93h67c5,0,9-4,9-9V16c0-5-4-9-9-9H16c-5,0-9,4-9,9v78"/>
<path id="Border1" class="st4" d="M17,93h2h65c5,0,9-4,9-9V16c0-5-4-9-9-9H16c-5,0-9,4-9,9v74"/>
</svg>
